<?xml version="1.0" encoding="iso-8859-1"?>
<!-- Generator: Adobe Illustrator 19.0.0, SVG Export Plug-In . SVG Version: 6.00 Build 0)  -->
<svg version="1.1" id="Capa_1" xmlns="http://www.w3.org/2000/svg" xmlns:xlink="http://www.w3.org/1999/xlink" x="0px" y="0px"
	 viewBox="0 0 512 512" style="enable-background:new 0 0 512 512;" xml:space="preserve">
<g>
	<g>
		<path d="M256,174.6c-44.885,0-81.4,36.516-81.4,81.4c0,44.884,36.516,81.4,81.4,81.4c44.884,0,81.4-36.516,81.4-81.4
			C337.4,211.116,300.885,174.6,256,174.6z"/>
	</g>
</g>
<g>
	<g>
		<path d="M416.668,0H95.334C42.767,0,0,42.766,0,95.333v321.334C0,469.234,42.767,512,95.334,512h321.334
			C469.234,512,512,469.234,512,416.667V95.333C512,42.766,469.234,0,416.668,0z M256,367.4c-61.427,0-111.4-49.975-111.4-111.4
			S194.573,144.6,256,144.6S367.4,194.574,367.4,256S317.427,367.4,256,367.4z M411.203,122.009c-2.789,2.79-6.649,4.39-10.6,4.39
			c-3.95,0-7.82-1.6-10.61-4.39c-2.79-2.79-4.39-6.66-4.39-10.61c0-3.949,1.6-7.811,4.39-10.6c2.79-2.801,6.66-4.4,10.61-4.4
			c3.94,0,7.811,1.6,10.6,4.4c2.801,2.789,4.4,6.65,4.4,10.6S414.004,119.219,411.203,122.009z"/>
	</g>
</g>
<g>
</g>
<g>
</g>
<g>
</g>
<g>
</g>
<g>
</g>
<g>
</g>
<g>
</g>
<g>
</g>
<g>
</g>
<g>
</g>
<g>
</g>
<g>
</g>
<g>
</g>
<g>
</g>
<g>
</g>
</svg>
